<svg xmlns="http://www.w3.org/2000/svg" xmlns:xlink="http://www.w3.org/1999/xlink"><symbol viewBox="0 0 800 800" id="dribble"><path d="M40 400C40 202 202 40 400 40s360 162 360 360-162 360-360 360S40 598 40 400zm473 36c41 111 58 219 59 219 0 0 111-67 131-206 0 0-94-30-190-13zm-59 14c-179 60-243 192-243 192s131 113 309 41c0 0-20-122-66-233zM171 606c109-174 262-206 262-206s-16-37-26-53c-168 50-315 43-315 43s-10 118 79 216zm213-306c-52-97-114-177-114-177C125 190 99 338 99 338s138 3 285-38zm59-17c114-42 160-113 160-113S500 64 328 101c0 0 68 88 115 182zm24 46c8 15 27 59 27 59s87-15 213 10c0-116-69-192-69-192s-52 75-171 123z"/></symbol><symbol viewBox="0 0 80 80" id="external" xmlns="http://www.w3.org/2000/svg"><path d="M66 8H48V0h32v32h-8V14L38 48l-6-6L66 8zm6 40h8v32H0V0h32v8H8v64h64V48z"/></symbol><symbol viewBox="0 0 800 800" id="github"><path d="M400 48c200 0 360 160 360 360 0 160-104 296-246 343-13 4-24-3-24-18v-99c0-48-25-66-25-66 79-9 165-39 165-178 0-61-38-97-38-97s20-40-2-95c0 0-30-10-100 37-58-17-122-17-180 0-69-47-100-37-100-37-22 55-3 95-2 95 0 0-38 36-38 97 0 139 86 170 165 178 0 0-20 14-24 48-20 10-73 25-105-30 0 0-18-35-54-38 0 0-36 0-3 23 0 0 24 11 41 52 0 0 22 71 121 49v61c0 15-12 22-25 18C144 708 40 568 40 408 40 209 200 48 400 48z"/></symbol><symbol viewBox="0 0 36 36" id="heart" xmlns="http://www.w3.org/2000/svg"><path fill="#DD2E44" d="M35.885 11.833c0-5.45-4.418-9.868-9.867-9.868-3.308 0-6.227 1.633-8.018 4.129-1.791-2.496-4.71-4.129-8.017-4.129-5.45 0-9.868 4.417-9.868 9.868 0 .772.098 1.52.266 2.241C1.751 22.587 11.216 31.568 18 34.034c6.783-2.466 16.249-11.447 17.617-19.959.17-.721.268-1.469.268-2.242z"/></symbol><symbol viewBox="0 0 504 504" id="instagram"><path d="M252 45.47c67.27 0 75.23.26 101.8 1.47 24.56 1.12 37.9 5.22 46.78 8.67a78.07 78.07 0 0129 18.84 78 78 0 0118.84 29c3.45 8.88 7.55 22.22 8.67 46.78 1.21 26.57 1.47 34.53 1.47 101.8s-.26 75.23-1.47 101.8c-1.12 24.56-5.22 37.9-8.67 46.78a83.42 83.42 0 01-47.81 47.81c-8.88 3.45-22.22 7.55-46.78 8.67-26.56 1.21-34.53 1.47-101.8 1.47s-75.24-.26-101.8-1.47c-24.56-1.12-37.9-5.22-46.78-8.67a78.06 78.06 0 01-29-18.84 78 78 0 01-18.84-29c-3.45-8.88-7.55-22.22-8.67-46.78-1.21-26.57-1.47-34.53-1.47-101.8s.26-75.23 1.47-101.8c1.12-24.56 5.22-37.9 8.67-46.78a78.08 78.08 0 0118.84-29 78 78 0 0129-18.85c8.88-3.45 22.22-7.55 46.78-8.67 26.57-1.21 34.53-1.47 101.8-1.47M252 .08c-68.42 0-77 .29-103.86 1.51S103 7.07 87 13.3a123.49 123.49 0 00-44.63 29.06A123.49 123.49 0 0013.31 87C7.08 103 2.82 121.32 1.6 148.13S.08 183.58.08 252s.29 77 1.52 103.87S7.08 401 13.31 417a123.49 123.49 0 0029.06 44.62A123.47 123.47 0 0087 490.7c16 6.23 34.34 10.49 61.15 11.71s35.45 1.52 103.87 1.52 77-.29 103.87-1.52S401 496.92 417 490.7a128.82 128.82 0 0073.7-73.7c6.23-16 10.49-34.34 11.71-61.15s1.52-35.45 1.52-103.87-.29-77-1.51-103.87S496.93 103 490.7 87a123.48 123.48 0 00-29.06-44.62A123.49 123.49 0 00417 13.31C401 7.08 382.68 2.82 355.87 1.6S320.42.08 252 .08"/><path d="M252 122.64A129.36 129.36 0 10381.36 252 129.37 129.37 0 00252 122.64zM252 336a84 84 0 1184-84 84 84 0 01-84 84zm164.71-218.47a30.23 30.23 0 11-30.23-30.23 30.23 30.23 0 0130.23 30.23"/></symbol><symbol viewBox="0 0 24 24" id="moon" xmlns="http://www.w3.org/2000/svg"><path d="M17.75 4.09l-2.53 1.94.91 3.06-2.63-1.81-2.63 1.81.91-3.06-2.53-1.94L12.44 4l1.06-3 1.06 3 3.19.09m3.5 6.91l-1.64 1.25.59 1.98-1.7-1.17-1.7 1.17.59-1.98L15.75 11l2.06-.05L18.5 9l.69 1.95 2.06.05m-2.28 4.95c.83-.08 1.72 1.1 1.19 1.85-.32.45-.66.87-1.08 1.27C15.17 23 8.84 23 4.94 19.07c-3.91-3.9-3.91-10.24 0-14.14.4-.4.82-.76 1.27-1.08.75-.53 1.93.36 1.85 1.19-.27 2.86.69 5.83 2.89 8.02a9.96 9.96 0 008.02 2.89m-1.64 2.02a12.08 12.08 0 01-7.8-3.47c-2.17-2.19-3.33-5-3.49-7.82-2.81 3.14-2.7 7.96.31 10.98 3.02 3.01 7.84 3.12 10.98.31z"/></symbol><symbol viewBox="0 0 24 24" id="sun" xmlns="http://www.w3.org/2000/svg"><path d="M3.55 18.54l1.41 1.41 1.8-1.79-1.42-1.42M11 22.45h2V19.5h-2m1-14a6 6 0 00-6 6 6 6 0 006 6 6 6 0 006-6c0-3.32-2.69-6-6-6m8 7h3v-2h-3m-2.76 7.66l1.8 1.79 1.41-1.41-1.79-1.8m1.79-12.28l-1.41-1.41-1.8 1.79 1.42 1.42M13 .55h-2V3.5h2m-9 7H1v2h3m2.76-7.66l-1.8-1.79-1.41 1.41 1.79 1.8 1.42-1.42z"/></symbol><symbol viewBox="0 0 800 800" id="twitter"><path d="M718 236c11 232-159 489-467 489C98 725 0 651 0 651s120 25 242-67C119 576 89 469 89 469s34 9 74-3C25 432 31 303 31 303s34 21 75 21c-125-97-51-220-51-220s113 159 339 172C361 96 568 13 674 126c55-9 106-40 106-40s-18 61-73 90.5c45-3 94-26 94-26S769 202 718 236z"/></symbol></svg>