<?xml version="1.0" standalone="no"?>
<!DOCTYPE svg PUBLIC "-//W3C//DTD SVG 20010904//EN"
 "http://www.w3.org/TR/2001/REC-SVG-20010904/DTD/svg10.dtd">
<svg version="1.0" xmlns="http://www.w3.org/2000/svg"
 width="700.000000pt" height="700.000000pt" viewBox="0 0 700.000000 700.000000"
 preserveAspectRatio="xMidYMid meet">
<metadata>
Created by potrace 1.11, written by Peter Selinger 2001-2013
</metadata>
<g transform="translate(0.000000,700.000000) scale(0.100000,-0.100000)"
fill="#000000" stroke="none">
<path d="M3298 6995 c-1 -1 -44 -5 -95 -9 -848 -60 -1707 -480 -2290 -1121
-45 -49 -81 -91 -79 -92 1 -1 29 2 62 8 32 5 73 12 89 15 17 3 55 9 85 15 30
5 66 11 80 13 14 3 81 14 150 26 69 12 136 23 150 25 14 3 36 7 50 9 14 3 41
8 60 10 19 3 47 8 63 11 47 9 79 14 172 30 50 9 101 18 115 21 14 2 63 11 110
19 47 8 137 24 200 35 63 11 126 22 140 25 30 4 304 53 340 60 14 3 48 9 75
15 91 18 102 18 103 7 0 -7 14 -86 31 -177 16 -91 32 -181 35 -200 3 -19 8
-46 11 -60 3 -14 8 -38 10 -55 13 -70 25 -142 30 -165 3 -14 14 -74 24 -135
21 -115 59 -329 85 -475 17 -98 17 -96 51 -295 14 -83 27 -160 29 -171 3 -12
7 -37 10 -55 3 -19 8 -45 10 -59 3 -14 12 -65 20 -115 9 -49 18 -101 21 -115
40 -203 47 -395 20 -552 -3 -16 -7 -39 -9 -52 -11 -61 -49 -183 -76 -243 -63
-139 -200 -313 -305 -389 -22 -16 -42 -32 -45 -35 -6 -7 -129 -79 -135 -79 -3
0 -28 -11 -57 -25 -74 -34 -184 -62 -316 -81 -97 -13 -286 -3 -378 21 -235 61
-387 170 -542 390 l-57 79 -16 -90 c-36 -195 -136 -347 -301 -461 -146 -101
-281 -152 -603 -228 -82 -20 -157 -38 -166 -41 -15 -4 -12 -15 18 -87 298
-707 863 -1325 1547 -1692 46 -25 86 -45 88 -45 2 0 4 41 5 90 4 135 29 270
77 415 89 265 203 460 395 673 87 97 184 179 521 442 135 105 252 196 260 203
8 7 116 91 240 186 124 96 254 198 290 226 36 28 117 91 180 140 63 49 127 99
141 112 28 26 48 24 67 -7 12 -19 248 -326 267 -346 5 -7 19 -24 29 -39 16
-21 149 -191 318 -406 15 -19 63 -81 108 -139 45 -58 89 -114 98 -125 9 -11
46 -59 82 -105 35 -47 67 -87 70 -90 7 -6 234 -298 279 -359 19 -25 37 -48 40
-51 4 -3 22 -25 41 -50 19 -25 37 -47 40 -50 3 -3 28 -34 55 -70 27 -36 82
-107 123 -158 l73 -92 57 47 c408 345 730 779 946 1276 89 204 189 523 220
702 2 17 11 68 20 115 31 181 41 303 41 545 0 303 -13 434 -72 725 -36 177
-112 434 -167 560 l-15 35 -1 -50 c-1 -27 -3 -77 -5 -110 -2 -33 -6 -118 -9
-190 -4 -71 -9 -152 -11 -180 -3 -27 -7 -75 -10 -105 -4 -49 -18 -149 -31
-235 -22 -143 -86 -339 -152 -472 -90 -179 -273 -374 -412 -439 -19 -9 -48
-26 -65 -38 -16 -11 -31 -20 -33 -18 -1 1 -18 -4 -38 -13 -75 -31 -178 -58
-274 -71 -25 -3 -54 -8 -65 -10 -30 -6 -214 -6 -259 1 -149 21 -249 52 -396
123 -30 14 -57 29 -60 32 -3 4 -12 9 -21 12 -8 3 -61 40 -116 81 -279 211
-492 525 -631 932 -106 309 -154 604 -156 945 0 85 3 187 7 225 9 81 26 196
31 204 2 3 7 22 10 41 8 55 52 198 84 276 87 213 255 428 435 555 135 95 363
195 490 214 l42 7 33 -159 c17 -87 48 -232 67 -323 20 -91 40 -185 45 -210 5
-25 20 -98 34 -164 18 -81 23 -123 16 -131 -5 -6 -29 -17 -52 -25 -24 -7 -65
-24 -93 -37 -286 -144 -392 -397 -351 -830 23 -243 139 -524 265 -642 156
-147 361 -181 540 -89 90 46 161 165 187 313 3 22 8 49 10 60 2 11 7 49 10 83
3 35 7 80 9 100 8 81 17 255 20 407 2 88 6 282 9 430 7 293 13 460 21 515 3
19 7 57 10 83 3 27 9 66 14 87 l8 38 -86 74 c-133 115 -434 338 -455 338 -3 0
-31 16 -61 36 -265 169 -712 343 -1072 419 -102 21 -269 47 -393 60 -57 7
-526 16 -532 10z"/>
<path d="M2325 5100 c-22 -4 -62 -11 -90 -15 -48 -6 -240 -36 -575 -91 -167
-27 -180 -29 -253 -40 -27 -3 -51 -12 -53 -19 -3 -6 4 -66 15 -131 11 -65 23
-137 26 -159 3 -22 8 -51 10 -65 3 -14 7 -43 11 -65 3 -22 10 -69 15 -105 6
-36 12 -81 15 -100 2 -19 6 -46 9 -60 3 -14 7 -45 10 -70 46 -395 142 -608
308 -690 101 -49 245 -68 352 -46 17 3 46 9 65 12 196 32 351 177 388 362 15
75 5 275 -21 432 -14 85 -29 175 -32 200 -3 25 -8 52 -10 60 -2 8 -7 35 -10
60 -13 94 -17 117 -31 205 -8 50 -17 101 -19 115 -2 14 -7 43 -9 65 -21 170
-18 165 -121 145z"/>
<path d="M670 4829 c-19 -4 -51 -10 -70 -13 -19 -3 -57 -10 -85 -15 -27 -6
-66 -13 -85 -15 -19 -3 -44 -7 -55 -9 -11 -3 -50 -10 -86 -17 l-67 -12 -46
-141 c-88 -272 -142 -538 -163 -797 -18 -233 -1 -741 26 -740 11 1 202 57 321
94 379 119 533 289 530 584 -1 42 -1 86 -1 97 0 11 -4 40 -9 65 -5 25 -12 68
-15 95 -3 28 -13 82 -20 120 -8 39 -17 84 -19 100 -3 27 -19 113 -31 175 -3
14 -14 77 -26 140 -11 63 -22 126 -24 140 -3 14 -10 53 -16 88 -6 34 -14 64
-18 65 -3 2 -22 0 -41 -4z"/>
<path d="M3624 1695 c-181 -143 -178 -141 -339 -266 -220 -170 -344 -295 -405
-408 -11 -20 -24 -43 -29 -51 -27 -44 -66 -151 -76 -205 -2 -16 -7 -41 -11
-55 -11 -49 -10 -206 3 -285 24 -152 106 -368 145 -381 19 -6 39 -8 141 -19
31 -3 85 -8 120 -12 138 -15 557 -8 707 12 108 14 128 17 160 21 51 8 268 53
315 66 22 5 47 12 55 13 91 20 444 148 527 190 l22 12 -22 24 c-12 13 -41 49
-64 79 -45 60 -221 286 -265 341 -15 19 -129 165 -254 324 -124 160 -239 306
-254 325 -16 19 -92 117 -170 218 -77 100 -142 182 -144 182 -2 0 -75 -56
-162 -125z"/>
</g>
</svg>
